<?xml version="1.0" encoding="UTF-8" standalone="no"?>
<!DOCTYPE svg PUBLIC "-//W3C//DTD SVG 1.1//EN" "http://www.w3.org/Graphics/SVG/1.1/DTD/svg11.dtd">
<svg width="100%" height="100%" viewBox="0 0 256 256" version="1.1" xmlns="http://www.w3.org/2000/svg" xmlns:xlink="http://www.w3.org/1999/xlink" xml:space="preserve" xmlns:serif="http://www.serif.com/" style="fill-rule:evenodd;clip-rule:evenodd;stroke-linecap:round;stroke-linejoin:round;stroke-miterlimit:1.5;">
    <g transform="matrix(1.0357,0,0,1.0357,15.3644,15.3644)">
        <path d="M217.506,48.408C217.506,21.691 195.815,0 169.098,0L48.408,0C21.691,0 0,21.691 0,48.408L0,169.098C0,195.815 21.691,217.506 48.408,217.506L169.098,217.506C195.815,217.506 217.506,195.815 217.506,169.098L217.506,48.408Z" style="fill:white;fill-opacity:0;"/>
        <clipPath id="_clip1">
            <path d="M217.506,48.408C217.506,21.691 195.815,0 169.098,0L48.408,0C21.691,0 0,21.691 0,48.408L0,169.098C0,195.815 21.691,217.506 48.408,217.506L169.098,217.506C195.815,217.506 217.506,195.815 217.506,169.098L217.506,48.408Z"/>
        </clipPath>
        <g clip-path="url(#_clip1)">
            <g transform="matrix(0.958955,0,0,0.958955,4.46381,2.89854)">
                <g transform="matrix(-0.908535,-1.11263e-16,4.54916e-17,-0.371467,207.559,225.382)">
                    <path d="M217.506,21.684C217.506,9.716 213.533,0 208.64,0L8.866,0C3.973,0 0,9.716 0,21.684L0,195.822C0,207.789 3.973,217.506 8.866,217.506L208.64,217.506C213.533,217.506 217.506,207.789 217.506,195.822L217.506,21.684Z" style="fill:white;fill-opacity:0;"/>
                    <path d="M217.506,21.684C217.506,9.716 213.533,0 208.64,0L8.866,0C3.973,0 0,9.716 0,21.684L0,195.822C0,207.789 3.973,217.506 8.866,217.506L208.64,217.506C213.533,217.506 217.506,207.789 217.506,195.822L217.506,21.684ZM213.073,21.684L213.073,195.822C213.073,201.806 211.086,206.664 208.64,206.664C208.64,206.664 8.866,206.664 8.866,206.664C6.419,206.664 4.433,201.806 4.433,195.822C4.433,195.822 4.433,21.684 4.433,21.684C4.433,15.7 6.419,10.842 8.866,10.842L208.64,10.842C211.086,10.842 213.073,15.7 213.073,21.684Z" style="fill:rgb(230,230,230);"/>
                </g>
                <g transform="matrix(0.908535,0,0,0.245184,9.94703,9.94703)">
                    <path d="M217.506,185.012C217.506,82.901 195.133,0 167.577,0L49.929,0C22.372,0 0,82.901 0,185.012C0,202.946 3.929,217.506 8.769,217.506L208.737,217.506C213.576,217.506 217.506,202.946 217.506,185.012L217.506,185.012Z" style="fill:white;fill-opacity:0;"/>
                    <path d="M216.713,198.5C215.332,209.71 212.278,217.506 208.737,217.506L8.769,217.506C3.929,217.506 0,202.946 0,185.012C0,82.901 22.372,0 49.929,0L167.577,0C195.133,0 217.506,82.901 217.506,185.012L217.506,185.012C217.506,189.824 217.223,194.392 216.713,198.5L213.073,185.012C213.073,91.967 192.687,16.426 167.577,16.426C167.577,16.426 49.929,16.426 49.929,16.426C24.819,16.426 4.433,91.967 4.433,185.012C4.433,193.88 6.376,201.079 8.769,201.079L208.737,201.079C211.13,201.079 213.073,193.88 213.073,185.012L216.713,198.5Z" style="fill:rgb(230,230,230);"/>
                </g>
                <g transform="matrix(-0.53627,-6.56741e-17,4.03444e-17,-0.329437,126.589,139.758)">
                    <path d="M217.506,24.45C217.506,10.956 210.775,0 202.485,0L15.02,0C6.73,0 0,10.956 0,24.45L0,193.055C0,206.55 6.73,217.506 15.02,217.506L202.485,217.506C210.775,217.506 217.506,206.55 217.506,193.055L217.506,24.45Z" style="fill:white;fill-opacity:0;"/>
                    <path d="M217.506,24.45C217.506,10.956 210.775,-0 202.485,-0L15.02,0C6.73,0 0,10.956 0,24.45L0,193.055C0,206.55 6.73,217.506 15.02,217.506L202.485,217.506C210.775,217.506 217.506,206.55 217.506,193.055L217.506,24.45ZM209.996,24.45L209.996,193.055C209.996,199.803 206.63,205.28 202.485,205.28C202.485,205.28 15.02,205.28 15.02,205.28C10.875,205.28 7.51,199.803 7.51,193.055L7.51,24.45C7.51,17.703 10.875,12.225 15.02,12.225C15.02,12.225 202.485,12.225 202.485,12.225C206.63,12.225 209.996,17.703 209.996,24.45Z" style="fill:rgb(230,230,230);"/>
                </g>
                <g transform="matrix(-0.35007,-4.28712e-17,4.03444e-17,-0.329437,207.559,139.758)">
                    <path d="M217.506,24.45C217.506,10.956 207.195,0 194.496,0L23.009,0C10.31,0 0,10.956 0,24.45L0,193.055C0,206.55 10.31,217.506 23.009,217.506L194.496,217.506C207.195,217.506 217.506,206.55 217.506,193.055L217.506,24.45Z" style="fill:white;fill-opacity:0;"/>
                    <path d="M217.506,24.45C217.506,10.956 207.195,0 194.496,0L23.009,0C10.31,0 0,10.956 0,24.45L0,193.055C0,206.55 10.31,217.506 23.009,217.506L194.496,217.506C207.195,217.506 217.506,206.55 217.506,193.055L217.506,24.45ZM206.001,24.45L206.001,193.055C206.001,199.803 200.846,205.28 194.496,205.28C194.496,205.28 23.009,205.28 23.009,205.28C16.66,205.28 11.505,199.803 11.505,193.055C11.505,193.055 11.505,24.45 11.505,24.45C11.505,17.703 16.66,12.225 23.009,12.225C23.009,12.225 194.496,12.225 194.496,12.225C200.846,12.225 206.001,17.703 206.001,24.45Z" style="fill:rgb(230,230,230);"/>
                </g>
            </g>
        </g>
        <path d="M217.506,48.408C217.506,21.691 195.815,0 169.098,0L48.408,0C21.691,0 0,21.691 0,48.408L0,169.098C0,195.815 21.691,217.506 48.408,217.506L169.098,217.506C195.815,217.506 217.506,195.815 217.506,169.098L217.506,48.408Z" style="fill:none;stroke:rgb(230,230,230);stroke-width:3.86px;"/>
    </g>
</svg>
